<svg width="309" height="309" viewBox="0 0 309 309" fill="none" xmlns="http://www.w3.org/2000/svg">
<g clip-path="url(#clip0)">
<path d="M309 154.5C309.028 175.415 304.794 196.116 296.558 215.34L296.046 216.519C282.114 248.214 257.956 274.322 227.435 290.667C196.915 307.013 161.794 312.652 127.691 306.682C126.763 306.518 125.837 306.347 124.912 306.171C115.355 304.318 105.997 301.558 96.9648 297.929C95.4975 297.339 94.0408 296.728 92.5949 296.096C91.6075 295.666 90.6202 295.223 89.642 294.766C62.883 282.364 40.2272 262.571 24.3449 237.719C8.46253 212.867 0.015709 183.993 0 154.5C0 69.173 69.173 0 154.5 0C239.827 0 309 69.173 309 154.5Z" fill="#BF07FF"/>
<path opacity="0.2" d="M127.691 306.682C126.763 306.518 125.837 306.347 124.912 306.17C124.308 288.659 122.238 252.717 115.175 215.075C111.313 194.473 105.951 173.355 98.5141 154.477C95.9663 147.945 93.0561 141.56 89.7972 135.352C82.2825 121.159 73.1679 109.21 62.1152 101.115L63.7425 98.8936C72.9348 105.631 81.1961 115.09 88.5265 127.27C90.7252 130.918 92.837 134.809 94.8619 138.945C97.0332 143.369 99.1038 148.067 101.074 153.037C102.331 156.2 103.545 159.473 104.717 162.856C109.818 177.542 114.155 194.3 117.726 213.128C118.517 217.287 119.27 221.549 119.984 225.913C125.52 259.724 127.188 290.985 127.691 306.682Z" fill="black"/>
<path opacity="0.2" d="M92.5949 296.096C91.6075 295.667 90.6202 295.223 89.642 294.766C88.6867 284.39 86.9314 271.518 83.7225 259.3C82.3172 253.812 80.5129 248.434 78.3242 243.21C74.6628 234.639 69.9227 227.353 63.793 222.86L65.4202 220.643C71.8379 225.342 76.7883 232.769 80.6143 241.459C84.9247 251.25 87.7999 262.646 89.7151 273.534C91.1367 281.62 92.0326 289.432 92.5949 296.096Z" fill="black"/>
<path opacity="0.2" d="M46.7437 101.051C54.3396 101.051 60.4972 94.8938 60.4972 87.2979C60.4972 79.7021 54.3396 73.5444 46.7437 73.5444C39.1479 73.5444 32.9902 79.7021 32.9902 87.2979C32.9902 94.8938 39.1479 101.051 46.7437 101.051Z" fill="black"/>
<path opacity="0.2" d="M51.1729 219.444C58.7688 219.444 64.9264 213.287 64.9264 205.691C64.9264 198.095 58.7688 191.938 51.1729 191.938C43.5771 191.938 37.4194 198.095 37.4194 205.691C37.4194 213.287 43.5771 219.444 51.1729 219.444Z" fill="black"/>
<path opacity="0.2" d="M101.346 110.4C98.4295 126.854 104.868 141.753 104.868 141.753C104.868 141.753 116.035 129.974 118.951 113.52C121.868 97.0657 115.429 82.1665 115.429 82.1665C115.429 82.1665 104.263 93.9452 101.346 110.4Z" fill="black"/>
<path opacity="0.2" d="M55.6371 149.459C71.3317 155.198 87.1025 151.515 87.1025 151.515C87.1025 151.515 77.4274 138.527 61.7329 132.788C46.0384 127.049 30.2676 130.732 30.2676 130.732C30.2676 130.732 39.9426 143.72 55.6371 149.459Z" fill="black"/>
<path opacity="0.2" d="M52.9759 254.3C63.9765 258.323 75.0461 255.699 75.0461 255.699C75.0461 255.699 68.2803 246.553 57.2797 242.53C46.2791 238.508 35.2095 241.132 35.2095 241.132C35.2095 241.132 41.9753 250.278 52.9759 254.3Z" fill="black"/>
<path d="M154.183 188.713C187.448 188.713 214.415 161.747 214.415 128.481C214.415 95.2159 187.448 68.249 154.183 68.249C120.918 68.249 93.9507 95.2159 93.9507 128.481C93.9507 161.747 120.918 188.713 154.183 188.713Z" fill="#D0CDE1"/>
<path d="M130.654 174.596C130.654 174.596 138.183 210.359 138.183 214.124C138.183 217.888 173.946 234.829 173.946 234.829L205.945 229.182L217.238 195.301C217.238 195.301 198.416 167.067 198.416 155.774L130.654 174.596Z" fill="#D0CDE1"/>
<path d="M296.558 215.34L296.046 216.519C282.113 248.214 257.955 274.322 227.435 290.667C196.914 307.013 161.794 312.651 127.691 306.682C126.763 306.518 125.837 306.347 124.912 306.17C115.355 304.318 105.997 301.558 96.9646 297.929C95.4973 297.339 94.0406 296.728 92.5947 296.096C91.6073 295.666 90.62 295.223 89.6418 294.766C80.7753 290.658 72.3191 285.717 64.387 280.01L57.2471 259.299L61.2604 256.237L69.5156 249.933L78.324 243.209L80.6141 241.459L115.175 215.075L117.726 213.127L135.69 199.414L135.695 199.41C135.695 199.41 155.121 231.064 183.357 221.652C211.592 212.241 210.975 185.253 210.975 185.253L296.558 215.34Z" fill="#2F2E41"/>
<path d="M101.95 79.954C101.95 79.954 121.073 38.5197 157.727 48.0815C194.38 57.6432 215.097 71.9859 216.691 86.3285C218.285 100.671 215.894 122.185 215.894 122.185C215.894 122.185 211.91 92.703 186.412 99.0775C160.914 105.452 121.073 100.671 121.073 100.671L114.699 158.042C114.699 158.042 107.528 147.683 99.5595 154.058C91.5913 160.432 76.4519 92.703 101.95 79.954Z" fill="#2F2E41"/>
<path d="M96.9647 297.929C95.4974 297.339 94.0408 296.728 92.5948 296.096C91.6075 295.666 90.6201 295.223 89.6419 294.766C74.9777 287.966 61.4684 278.912 49.6045 267.934C53.8052 262.211 57.2472 259.299 57.2472 259.299H85.4823L89.7151 273.533L96.9647 297.929Z" fill="#2F2E41"/>
<path d="M271.824 212.241L296.046 216.52C289.564 231.286 280.809 244.947 270.101 257.005L271.824 212.241Z" fill="#2F2E41"/>
</g>
<defs>
<clipPath id="clip0">
<rect width="309" height="309" fill="white"/>
</clipPath>
</defs>
</svg>
