<svg width="56" height="51" viewBox="0 0 56 51" fill="none" xmlns="http://www.w3.org/2000/svg">
<path d="M17.0028 6.00877C20.9246 -0.544627 29.7953 -2.00237 35.6082 2.95125L49.1625 14.5018C51.3376 16.3554 52.8025 18.9062 53.3074 21.719L55.8023 35.619C57.1614 43.1912 51.341 50.1493 43.648 50.1493H42.012H15.3649H12.3676C2.77538 50.1493 -3.15424 39.6903 1.77159 31.4593L17.0028 6.00877Z" fill="#BF07FF"/>
<path d="M26.4174 20.3362C30.8569 16.8245 37.1155 16.781 41.6034 20.2305L50.1206 26.7765C52.3893 28.5203 53.9819 30.9976 54.6265 33.7855L54.9118 35.0187C56.7012 42.7581 50.8241 50.1494 42.8805 50.1494H42.0121H12.1109C8.16647 50.1494 4.79095 47.318 4.10467 43.4337C3.5845 40.4895 4.72219 37.4974 7.06712 35.6425L26.4174 20.3362Z" fill="#7C00AE"/>
<path d="M45.343 29.0672C45.343 28.3942 44.7974 27.8486 44.1244 27.8486C43.4514 27.8486 42.9058 28.3942 42.9058 29.0672V35.404C42.9058 36.0771 43.4514 36.6227 44.1244 36.6227C44.7974 36.6227 45.343 36.0771 45.343 35.404V29.0672Z" fill="white" fill-opacity="0.8"/>
<path d="M39.9807 25.4115C39.9807 24.7385 39.4351 24.1929 38.7621 24.1929C38.0891 24.1929 37.5435 24.7385 37.5435 25.4115V39.2224C37.5435 39.8955 38.0891 40.441 38.7621 40.441C39.4351 40.441 39.9807 39.8955 39.9807 39.2224V25.4115Z" fill="white" fill-opacity="0.8"/>
<path d="M34.6189 22.9742C34.6189 22.3012 34.0733 21.7556 33.4002 21.7556C32.7272 21.7556 32.1816 22.3012 32.1816 22.9742V41.6596C32.1816 42.3327 32.7272 42.8782 33.4002 42.8782C34.0733 42.8782 34.6189 42.3327 34.6189 41.6596V22.9742Z" fill="white" fill-opacity="0.9"/>
<path d="M29.2571 24.599C29.2571 23.926 28.7115 23.3804 28.0384 23.3804C27.3654 23.3804 26.8198 23.926 26.8198 24.599V40.0347C26.8198 40.7078 27.3654 41.2534 28.0384 41.2534C28.7115 41.2534 29.2571 40.7078 29.2571 40.0347V24.599Z" fill="white" fill-opacity="0.9"/>
<path d="M23.8952 22.1617C23.8952 21.4887 23.3496 20.9431 22.6766 20.9431C22.0036 20.9431 21.458 21.4887 21.458 22.1617V42.472C21.458 43.145 22.0036 43.6906 22.6766 43.6906C23.3496 43.6906 23.8952 43.145 23.8952 42.472V22.1617Z" fill="white" fill-opacity="0.9"/>
<path d="M18.5334 25.4115C18.5334 24.7385 17.9878 24.1929 17.3148 24.1929C16.6418 24.1929 16.0962 24.7385 16.0962 25.4115V39.2224C16.0962 39.8955 16.6418 40.441 17.3148 40.441C17.9878 40.441 18.5334 39.8955 18.5334 39.2224V25.4115Z" fill="white" fill-opacity="0.8"/>
<path d="M13.1716 31.0983C13.1716 30.4252 12.626 29.8796 11.953 29.8796C11.28 29.8796 10.7344 30.4252 10.7344 31.0983V33.5355C10.7344 34.2085 11.28 34.7541 11.953 34.7541C12.626 34.7541 13.1716 34.2085 13.1716 33.5355V31.0983Z" fill="white" fill-opacity="0.8"/>
</svg>
