<svg width="173" height="155" viewBox="0 0 173 155" fill="none" xmlns="http://www.w3.org/2000/svg">
<path d="M52.5264 18.5717C64.642 -1.68332 92.0461 -6.18885 110.004 9.12164L151.877 44.8217C158.597 50.5507 163.122 58.4346 164.682 67.1286L172.389 110.09C176.588 133.494 158.607 155 134.841 155H129.787H47.4667H38.2072C8.57396 155 -9.74435 122.674 5.47295 97.2336L52.5264 18.5717Z" fill="#BF07FF"/>
<path d="M81.6105 62.8543C95.3254 52.0004 114.66 51.8658 128.524 62.5274L154.836 82.7598C161.845 88.1493 166.765 95.8063 168.757 104.423L169.638 108.235C175.166 132.155 157.01 155 132.47 155H129.787H37.4136C25.2282 155 14.8002 146.249 12.6801 134.243C11.0731 125.143 14.5878 115.896 21.8319 110.163L81.6105 62.8543Z" fill="#7C00AE"/>
<path d="M140.077 89.8404C140.077 87.7602 138.391 86.0739 136.312 86.0739C134.233 86.0739 132.548 87.7602 132.548 89.8404V109.426C132.548 111.506 134.233 113.192 136.312 113.192C138.391 113.192 140.077 111.506 140.077 109.426V89.8404Z" fill="white" fill-opacity="0.8"/>
<path d="M123.512 78.5409C123.512 76.4608 121.827 74.7745 119.748 74.7745C117.669 74.7745 115.983 76.4608 115.983 78.5409V121.227C115.983 123.308 117.669 124.994 119.748 124.994C121.827 124.994 123.512 123.308 123.512 121.227V78.5409Z" fill="white" fill-opacity="0.8"/>
<path d="M106.948 71.0081C106.948 68.9279 105.263 67.2416 103.183 67.2416C101.104 67.2416 99.4188 68.9279 99.4188 71.0081V128.76C99.4188 130.841 101.104 132.527 103.183 132.527C105.263 132.527 106.948 130.841 106.948 128.76V71.0081Z" fill="white" fill-opacity="0.9"/>
<path d="M90.3836 76.03C90.3836 73.9498 88.6981 72.2635 86.6189 72.2635C84.5398 72.2635 82.8543 73.9498 82.8543 76.03V123.738C82.8543 125.819 84.5398 127.505 86.6189 127.505C88.6981 127.505 90.3836 125.819 90.3836 123.738V76.03Z" fill="white" fill-opacity="0.9"/>
<path d="M73.8192 68.497C73.8192 66.4169 72.1337 64.7306 70.0545 64.7306C67.9754 64.7306 66.2899 66.4169 66.2899 68.497V131.271C66.2899 133.351 67.9754 135.038 70.0545 135.038C72.1337 135.038 73.8192 133.351 73.8192 131.271V68.497Z" fill="white" fill-opacity="0.9"/>
<path d="M57.2547 78.5409C57.2547 76.4608 55.5692 74.7745 53.49 74.7745C51.4109 74.7745 49.7254 76.4608 49.7254 78.5409V121.227C49.7254 123.308 51.4109 124.994 53.49 124.994C55.5692 124.994 57.2547 123.308 57.2547 121.227V78.5409Z" fill="white" fill-opacity="0.8"/>
<path d="M40.6903 96.1178C40.6903 94.0376 39.0048 92.3513 36.9256 92.3513C34.8465 92.3513 33.161 94.0376 33.161 96.1178V103.651C33.161 105.731 34.8465 107.417 36.9256 107.417C39.0048 107.417 40.6903 105.731 40.6903 103.651V96.1178Z" fill="white" fill-opacity="0.8"/>
</svg>
