<svg width="554" height="482" viewBox="0 0 554 482" fill="none" xmlns="http://www.w3.org/2000/svg">
<g clip-path="url(#clip0)">
<path d="M554 476.024L157.421 482L0 454.115H245.755L554 476.024Z" fill="#E6E6E6"/>
<path d="M456.682 126.807C491.719 126.807 520.122 98.4204 520.122 63.4036C520.122 28.3867 491.719 0 456.682 0C421.645 0 393.243 28.3867 393.243 63.4036C393.243 98.4204 421.645 126.807 456.682 126.807Z" fill="#FF6584"/>
<path d="M112.227 457.43C112.227 457.43 113.155 437.997 132.178 440.255L112.227 457.43Z" fill="#3F3D56"/>
<path d="M106.852 438.936C112.11 438.936 116.372 434.676 116.372 429.421C116.372 424.166 112.11 419.905 106.852 419.905C101.593 419.905 97.3306 424.166 97.3306 429.421C97.3306 434.676 101.593 438.936 106.852 438.936Z" fill="#BF07FF"/>
<path d="M107.99 445.445H105.302V464.247H107.99V445.445Z" fill="#3F3D56"/>
<path d="M425.77 460.749C425.77 460.749 426.698 441.316 445.721 443.575L425.77 460.749Z" fill="#3F3D56"/>
<path d="M420.395 442.256C425.653 442.256 429.916 437.996 429.916 432.741C429.916 427.485 425.653 423.225 420.395 423.225C415.137 423.225 410.874 427.485 410.874 432.741C410.874 437.996 415.137 442.256 420.395 442.256Z" fill="#BF07FF"/>
<path d="M421.533 448.764H418.846V467.566H421.533V448.764Z" fill="#3F3D56"/>
<path d="M471.606 464.069C471.606 464.069 472.534 444.636 491.557 446.895L471.606 464.069Z" fill="#3F3D56"/>
<path d="M466.231 445.576C471.489 445.576 475.752 441.315 475.752 436.06C475.752 430.805 471.489 426.544 466.231 426.544C460.973 426.544 456.71 430.805 456.71 436.06C456.71 441.315 460.973 445.576 466.231 445.576Z" fill="#BF07FF"/>
<path d="M467.369 452.084H464.682V470.886H467.369V452.084Z" fill="#3F3D56"/>
<path d="M187.291 448.135C187.291 448.135 188.219 428.702 207.242 430.961L187.291 448.135Z" fill="#3F3D56"/>
<path d="M181.916 429.642C187.174 429.642 191.437 425.382 191.437 420.126C191.437 414.871 187.174 410.611 181.916 410.611C176.658 410.611 172.395 414.871 172.395 420.126C172.395 425.382 176.658 429.642 181.916 429.642Z" fill="#BF07FF"/>
<path d="M183.054 436.15H180.367V454.952H183.054V436.15Z" fill="#3F3D56"/>
<path d="M45.7979 451.454C45.7979 451.454 46.7258 432.021 65.749 434.28L45.7979 451.454Z" fill="#3F3D56"/>
<path d="M40.4228 432.961C45.6811 432.961 49.9438 428.701 49.9438 423.446C49.9438 418.19 45.6811 413.93 40.4228 413.93C35.1645 413.93 30.9019 418.19 30.9019 423.446C30.9019 428.701 35.1645 432.961 40.4228 432.961Z" fill="#BF07FF"/>
<path d="M41.5611 439.47H38.8735V458.272H41.5611V439.47Z" fill="#3F3D56"/>
<path d="M275.996 417.686C333.285 417.686 379.728 371.27 379.728 314.012C379.728 256.755 333.285 210.339 275.996 210.339C218.706 210.339 172.264 256.755 172.264 314.012C172.264 371.27 218.706 417.686 275.996 417.686Z" fill="#3F3D56"/>
<path d="M210.69 322.335C213.266 319.252 216.488 316.772 220.128 315.071C223.769 313.37 227.738 312.488 231.757 312.488C235.776 312.488 239.745 313.37 243.386 315.071C247.026 316.772 250.248 319.252 252.824 322.335C257.232 318.129 260.279 312.699 261.572 306.747C262.865 300.795 262.344 294.592 260.078 288.938C257.811 283.283 253.902 278.437 248.854 275.024C243.806 271.611 237.851 269.787 231.757 269.787C225.662 269.787 219.708 271.611 214.66 275.024C209.612 278.437 205.703 283.283 203.436 288.938C201.17 294.592 200.649 300.795 201.942 306.747C203.235 312.699 206.282 318.129 210.69 322.335Z" fill="white"/>
<path d="M293.065 322.335C295.642 319.252 298.864 316.772 302.504 315.071C306.144 313.37 310.114 312.488 314.132 312.488C318.151 312.488 322.121 313.37 325.761 315.071C329.401 316.772 332.623 319.252 335.2 322.335C339.608 318.129 342.655 312.7 343.948 306.747C345.24 300.795 344.72 294.592 342.453 288.938C340.186 283.283 336.277 278.438 331.229 275.024C326.182 271.611 320.227 269.787 314.132 269.787C308.038 269.787 302.083 271.611 297.035 275.024C291.988 278.438 288.079 283.283 285.812 288.938C283.545 294.592 283.025 300.795 284.317 306.747C285.61 312.7 288.657 318.129 293.065 322.335Z" fill="white"/>
<path d="M221.349 300.385C227.146 300.385 231.844 295.689 231.844 289.896C231.844 284.103 227.146 279.407 221.349 279.407C215.553 279.407 210.854 284.103 210.854 289.896C210.854 295.689 215.553 300.385 221.349 300.385Z" fill="#3F3D56"/>
<path d="M303.722 300.385C309.518 300.385 314.217 295.689 314.217 289.896C314.217 284.103 309.518 279.407 303.722 279.407C297.926 279.407 293.227 284.103 293.227 289.896C293.227 295.689 297.926 300.385 303.722 300.385Z" fill="#3F3D56"/>
<path d="M201.248 352.127C207.988 352.127 213.451 346.666 213.451 339.93C213.451 333.194 207.988 327.733 201.248 327.733C194.508 327.733 189.044 333.194 189.044 339.93C189.044 346.666 194.508 352.127 201.248 352.127Z" fill="#FF6584"/>
<path d="M341.591 352.127C348.331 352.127 353.795 346.666 353.795 339.93C353.795 333.194 348.331 327.733 341.591 327.733C334.851 327.733 329.387 333.194 329.387 339.93C329.387 346.666 334.851 352.127 341.591 352.127Z" fill="#FF6584"/>
<path d="M271.419 315.537L262.267 355.177L277.521 339.931L271.419 315.537Z" fill="#FF6584"/>
<path d="M318.449 467.998L308.057 459.281L308.299 467.998H305.072L304.814 458.781L290.784 467.998H284.911L304.709 454.992L303.942 427.681L303.37 407.055L306.589 406.967L307.17 427.681L307.936 454.967L323.467 467.998H318.449Z" fill="#3F3D56"/>
<path d="M269.63 467.998L259.239 459.281L259.481 467.998H256.262L256.004 458.781L241.973 467.998H236.1L255.891 454.992L255.124 427.681L254.552 407.055L257.778 406.967L258.359 427.681L259.118 454.967L274.649 467.998H269.63Z" fill="#3F3D56"/>
<path d="M277.521 202.716C274.675 202.716 272.164 204.926 270.485 208.32C269.006 203.216 265.897 199.667 262.267 199.667C262.02 199.691 261.775 199.732 261.534 199.79C260.138 194.341 256.895 190.519 253.114 190.519C248.059 190.519 243.961 197.345 243.961 205.765C243.961 214.185 248.059 221.011 253.114 221.011C253.36 220.987 253.605 220.946 253.847 220.888C255.242 226.337 258.485 230.159 262.267 230.159C265.113 230.159 267.624 227.949 269.303 224.555C270.782 229.659 273.891 233.208 277.521 233.208C282.576 233.208 286.674 226.382 286.674 217.962C286.674 209.542 282.576 202.716 277.521 202.716Z" fill="#3F3D56"/>
<path d="M178.63 353.3C174.623 353.3 170.656 352.511 166.954 350.979C163.253 349.446 159.89 347.2 157.056 344.369C154.223 341.537 151.976 338.176 150.443 334.476C148.91 330.777 148.12 326.812 148.12 322.808V307.561C148.12 299.474 151.335 291.719 157.056 286C162.778 280.282 170.538 277.069 178.63 277.069V353.3Z" fill="#BF07FF"/>
<path d="M373.361 277.069C377.368 277.069 381.335 277.858 385.037 279.39C388.738 280.923 392.102 283.169 394.935 286C397.768 288.832 400.015 292.193 401.548 295.893C403.082 299.592 403.871 303.557 403.871 307.561V322.808C403.871 326.812 403.082 330.777 401.548 334.476C400.015 338.176 397.768 341.537 394.935 344.369C392.102 347.2 388.738 349.446 385.037 350.979C381.335 352.511 377.368 353.3 373.361 353.3V277.069H373.361Z" fill="#BF07FF"/>
<path d="M389.349 309.957H384.508C384.508 248.601 334.563 198.684 273.172 198.684C211.781 198.684 161.836 248.601 161.836 309.957H156.995C156.995 245.933 209.112 193.846 273.172 193.846C337.233 193.846 389.349 245.933 389.349 309.957Z" fill="#BF07FF"/>
<path d="M107.051 216.712L107.052 216.711L104.778 215.764L95.1825 211.71L91.7431 210.257L91.4791 210.923L86.8589 222.582L99.8617 228.082L99.93 228.144L99.0537 230.209C98.9338 230.398 98.8315 230.597 98.748 230.805C98.1342 232.354 99.2935 233.895 100.389 234.328C101.485 234.762 102.871 233.858 103.485 232.309C104.091 230.781 103.499 228.84 102.431 228.372L102.432 228.37L100.158 227.423L92.3781 224.401L96.8232 213.183L96.1644 212.923L91.7177 224.144L90.7557 223.77L95.2198 212.505L95.3374 212.555L104.482 216.423L104.55 216.485L103.674 218.55C103.554 218.739 103.452 218.938 103.368 219.146C102.754 220.695 103.914 222.235 105.01 222.669C106.106 223.103 107.492 222.199 108.105 220.65C108.711 219.122 108.119 217.181 107.051 216.712Z" fill="#3F3D56"/>
<path d="M152.056 245.336C147.336 242.639 148.281 236.72 148.281 236.72C148.162 232.875 144.983 233.419 144.983 233.419L143.827 233.683C143.289 233.434 142.697 233.324 142.106 233.365L140.346 233.661C144.354 234.602 144.024 237.952 144.024 237.952L144.586 241.869L134.086 237.636L135.291 234.795C135.458 234.533 135.6 234.256 135.716 233.967C136.569 231.816 134.958 229.676 133.436 229.074C131.914 228.471 129.989 229.727 129.137 231.878C128.296 234 129.118 236.696 130.601 237.347L130.6 237.35L133.758 238.664L133.782 238.59L152.056 245.336ZM146.724 238.453L147.061 242.203C145.872 240.535 145.314 238.501 145.485 236.461C145.457 235.735 145.212 235.034 144.782 234.449C145.443 234.873 145.975 235.471 146.318 236.177C146.661 236.884 146.801 237.672 146.724 238.453V238.453Z" fill="#3F3D56"/>
<path d="M71.9631 189.884L71.9644 189.881L68.8058 188.566L55.6047 183.438L58.9365 180.475C59.5883 179.607 60.5509 179.024 61.6228 178.848C62.6948 178.673 63.7931 178.918 64.6881 179.533L63.6542 177.998C63.6542 177.998 61.7104 175.426 58.9895 178.147C58.9895 178.147 55.623 183.107 50.335 181.843L68.3947 189.482L68.4895 189.568L67.2725 192.436C67.1059 192.698 66.9637 192.975 66.8479 193.263C65.9954 195.415 67.6055 197.555 69.1276 198.157C70.6498 198.76 72.5748 197.504 73.4274 195.353C74.2682 193.231 73.4464 190.535 71.9631 189.884Z" fill="#3F3D56"/>
<path d="M120.292 173.097L119.075 175.965C118.909 176.227 118.766 176.504 118.651 176.793C117.798 178.944 119.408 181.084 120.93 181.686C122.452 182.289 124.378 181.033 125.23 178.882C126.071 176.76 125.249 174.064 123.766 173.413L123.767 173.41L120.609 172.096L109.803 167.898L115.977 152.318L115.062 151.956L108.886 167.541L107.55 167.022L113.75 151.376L113.913 151.445L126.614 156.818L126.709 156.904L125.492 159.772C125.326 160.034 125.184 160.311 125.068 160.599C124.215 162.751 125.825 164.891 127.347 165.493C128.869 166.096 130.795 164.84 131.647 162.689C132.488 160.567 131.666 157.871 130.183 157.22L130.184 157.217L127.026 155.902L114.118 150.449L114.117 150.449L113.698 150.272L108.921 148.253L102.138 165.372L120.197 173.011L120.292 173.097Z" fill="#3F3D56"/>
<path d="M63.0612 85.4269L63.0634 85.4225L57.626 83.1594L34.9011 74.3304L40.6366 69.2304C40.6366 69.2304 44.4518 63.9399 50.5377 67.6094L48.7579 64.9656C48.7579 64.9656 45.4118 60.5381 40.728 65.2225C40.728 65.2225 34.9326 73.7612 25.8296 71.5846L56.9183 84.7355L57.0815 84.8833L54.9866 89.8201C54.6998 90.2717 54.4551 90.7487 54.2556 91.245C52.788 94.9483 55.5598 98.6321 58.18 99.6693C60.8002 100.706 64.1142 98.545 65.5818 94.8417C67.0292 91.1888 65.6145 86.5482 63.0612 85.4269Z" fill="#3F3D56"/>
<path d="M79.7474 159.591C68.4618 153.142 70.7201 138.991 70.7201 138.991C70.4362 129.797 62.8362 131.099 62.8362 131.099L60.0703 131.73C58.7854 131.134 57.3705 130.872 55.9573 130.969L51.7498 131.677C61.3306 133.927 60.5434 141.937 60.5434 141.937L61.8857 151.303L36.7814 141.181L39.6638 134.389C40.0621 133.762 40.402 133.099 40.6791 132.41C42.7174 127.266 38.8677 122.15 35.2284 120.709C31.5891 119.269 26.9865 122.271 24.9482 127.414C22.9376 132.488 24.9025 138.933 28.4489 140.491L28.4459 140.497L35.9978 143.64L36.0541 143.462L79.7474 159.591ZM66.999 143.135L67.8068 152.131C63.0669 145.842 64.0357 138.371 64.0357 138.371C63.9689 136.636 63.3832 134.961 62.3544 133.561C67.7992 136.818 66.9989 143.135 66.9989 143.135H66.999Z" fill="#3F3D56"/>
</g>
<defs>
<clipPath id="clip0">
<rect width="554" height="482" fill="white"/>
</clipPath>
</defs>
</svg>
