<svg width="554" height="396" viewBox="0 0 554 396" fill="none" xmlns="http://www.w3.org/2000/svg">
<g clip-path="url(#clip0)">
<path d="M505.863 355.341C510.722 363.929 506.602 392.938 506.602 392.938C506.602 392.938 479.621 381.516 474.762 372.931C472.435 368.807 471.84 363.928 473.108 359.366C474.376 354.804 477.404 350.931 481.526 348.6C485.647 346.269 490.526 345.669 495.089 346.933C499.653 348.197 503.528 351.221 505.863 355.341V355.341Z" fill="#F1F1F1"/>
<path d="M506.993 392.9L506.42 393.021C500.899 366.792 481.62 349.005 481.426 348.829L481.82 348.396C482.016 348.573 501.432 366.481 506.993 392.9Z" fill="white"/>
<path d="M550.011 365.12C543.418 377.081 506.245 393.283 506.245 393.283C506.245 393.283 500.116 353.199 506.706 341.243C509.872 335.5 515.19 331.25 521.49 329.429C527.79 327.607 534.555 328.363 540.297 331.529C546.04 334.695 550.289 340.013 552.111 346.313C553.933 352.612 553.177 359.378 550.011 365.12Z" fill="#F1F1F1"/>
<path d="M506.573 393.717L506.015 393.129C532.914 367.584 539.877 331.955 539.944 331.598L540.741 331.748C540.674 332.107 533.667 367.986 506.573 393.717Z" fill="white"/>
<path d="M130.245 274.554C125.991 274.54 121.756 273.992 117.638 272.923L116.826 272.699L116.074 272.322C88.8548 258.675 65.8918 240.649 47.8223 218.745C32.8646 200.507 21.2029 179.799 13.3615 157.553C3.9845 130.919 -0.52676 102.816 0.0430864 74.5855C0.0545848 73.993 0.0643161 73.5354 0.0643161 73.2202C0.0643161 59.4971 7.68167 47.4561 19.4704 42.5441C28.4929 38.7847 110.413 5.13693 116.332 2.70578C127.479 -2.87954 139.371 1.78229 141.274 2.59752C145.542 4.34274 221.272 35.3172 237.637 43.1099C254.503 51.1413 259.003 65.5694 259.003 72.8285C259.003 105.692 253.312 136.406 242.086 164.117C233.021 186.547 220.172 207.254 204.099 225.337C173.09 260.233 142.072 272.605 141.773 272.714C138.066 273.989 134.165 274.612 130.245 274.554ZM122.951 256.486C125.64 257.088 131.831 257.993 135.867 256.521C140.993 254.651 166.955 241.189 191.215 213.887C224.734 176.167 241.742 128.748 241.767 72.9497C241.707 71.8192 240.904 63.7565 230.227 58.6723C214.179 51.0304 135.464 18.8439 134.671 18.5195L134.453 18.4273C132.804 17.7361 127.554 16.2801 123.935 18.1764L123.211 18.5142C122.333 18.8746 35.3741 54.5905 26.0999 58.4547C19.6123 61.1578 17.3008 67.8545 17.3008 73.2202C17.3008 73.6123 17.2907 74.1827 17.2763 74.9199C16.5351 113.099 25.3701 207.047 122.951 256.486Z" fill="#3F3D56"/>
<path d="M119.938 10.5421C119.938 10.5421 32.1883 46.582 22.7866 50.4994C13.3848 54.4168 8.68399 63.8185 8.68399 73.2203C8.68399 82.622 1.63272 205.302 119.938 264.617C119.938 264.617 130.675 267.588 138.821 264.617C146.968 261.646 250.387 211.504 250.387 72.8285C250.387 72.8285 250.386 58.7259 233.933 50.8912C217.48 43.0564 137.933 10.5421 137.933 10.5421C137.933 10.5421 128.164 6.233 119.938 10.5421Z" fill="#BF07FF"/>
<path opacity="0.1" d="M129.34 38.7471V231.007C129.34 231.007 40.8066 188.391 41.5901 76.354L129.34 38.7471Z" fill="black"/>
<path d="M130.494 176.927L102.292 140.666L118.693 127.91L132.046 145.079L177.157 97.458L192.243 111.751L130.494 176.927Z" fill="white"/>
<path d="M553.324 395.004H295.624C295.445 395.004 295.273 394.933 295.146 394.806C295.019 394.679 294.948 394.507 294.948 394.328C294.948 394.148 295.019 393.976 295.146 393.849C295.273 393.723 295.445 393.651 295.624 393.651H553.324C553.503 393.651 553.675 393.723 553.802 393.849C553.929 393.976 554 394.148 554 394.328C554 394.507 553.929 394.679 553.802 394.806C553.675 394.933 553.503 395.004 553.324 395.004Z" fill="#CACACA"/>
<path d="M370.117 384.342L380.577 384.342L385.554 343.994L370.115 343.994L370.117 384.342Z" fill="#FFB8B8"/>
<path d="M367.449 380.927L388.049 380.926H388.05C391.532 380.926 394.871 382.309 397.333 384.771C399.795 387.233 401.179 390.572 401.179 394.054V394.481L367.449 394.482L367.449 380.927Z" fill="#2F2E41"/>
<path d="M405.289 384.342L415.749 384.342L420.726 343.994L405.287 343.994L405.289 384.342Z" fill="#FFB8B8"/>
<path d="M402.62 380.927L423.221 380.926H423.222C426.704 380.926 430.043 382.309 432.505 384.771C434.967 387.233 436.35 390.572 436.35 394.054V394.481L402.621 394.482L402.62 380.927Z" fill="#2F2E41"/>
<path d="M386.559 242.65L389.068 370.654L368.769 369.395L354.687 287.864L350.239 232.273L386.559 242.65Z" fill="#2F2E41"/>
<path d="M421.395 221.155L424.24 372.683L400.566 372.007L395.453 281.934L386.559 249.321L350.24 232.273L356.169 191.507L409.536 190.766L421.395 221.155Z" fill="#2F2E41"/>
<path d="M380.58 85.5155C390.606 85.5155 398.733 77.3882 398.733 67.3627C398.733 57.3372 390.606 49.21 380.58 49.21C370.555 49.21 362.428 57.3372 362.428 67.3627C362.428 77.3882 370.555 85.5155 380.58 85.5155Z" fill="#FFB8B8"/>
<path d="M395.637 93.1626L398.417 97.3751L405.83 118.128L399.9 198.919L365.063 199.661L360.617 107.01L369.932 95.3655L395.637 93.1626Z" fill="#CCCCCC"/>
<path d="M346.534 109.234L340.604 108.493C340.604 108.493 339.122 109.234 338.381 114.422C337.64 119.611 328.745 165.565 328.745 165.565L340.604 221.896L353.946 204.108L345.793 172.977L353.946 141.847L346.534 109.234Z" fill="#2F2E41"/>
<path d="M422.136 108.494H426.583L437.702 168.53L427.325 215.226L416.948 198.178L419.912 179.648L418.43 163.342L413.242 153.706L422.136 108.494Z" fill="#2F2E41"/>
<path d="M391.307 67.3631L388.007 66.538C388.007 66.538 385.531 52.5108 379.756 54.1611C373.98 55.8113 359.127 57.4616 359.127 50.8606C359.127 44.2595 373.155 38.4837 381.406 39.3088C389.657 40.1339 400.195 42.8713 402.859 54.9862C407.129 74.407 394.048 79.3124 394.048 79.3124L394.266 78.6053C394.87 76.6419 394.914 74.5487 394.391 72.562C393.868 70.5754 392.8 68.7746 391.307 67.3631Z" fill="#2F2E41"/>
<path d="M341.345 108.493L365.064 98.8573L370.623 94.7808L387.3 168.53L395.082 92.5571L425.842 108.493L415.465 158.895L413.983 178.166L418.43 193.731C418.43 193.731 433.995 204.849 428.807 216.708C423.618 228.567 417.689 229.309 417.689 229.309C417.689 229.309 392.488 205.59 391.006 199.661C389.523 193.731 387.3 183.354 387.3 183.354C387.3 183.354 374.699 230.791 359.875 230.05C345.051 229.309 345.051 213.743 345.051 213.743L348.757 197.437L354.687 180.389L351.722 152.224L341.345 108.493Z" fill="#2F2E41"/>
</g>
<defs>
<clipPath id="clip0">
<rect width="554" height="395.004" fill="white"/>
</clipPath>
</defs>
</svg>
