<svg width="25" height="26" viewBox="0 0 25 26" fill="none" xmlns="http://www.w3.org/2000/svg">
<path d="M20.7659 16.8628C19.4274 16.8628 18.2343 17.4888 17.4578 18.4614L8.30969 13.7959C8.40989 13.4354 8.46758 13.0571 8.46758 12.6651C8.46758 12.273 8.40989 11.8947 8.30969 11.5342L17.4581 6.86869C18.2346 7.84137 19.4277 8.46758 20.7662 8.46758C23.1008 8.46758 25 6.56839 25 4.23379C24.9997 1.8992 23.1005 0 20.7659 0C18.4313 0 16.5321 1.8992 16.5321 4.23351C16.5321 4.62556 16.5898 5.00383 16.69 5.36436L7.54191 10.0302C6.7654 9.05749 5.57235 8.43128 4.23379 8.43128C1.8992 8.43156 0 10.3308 0 12.6651C0 14.9997 1.8992 16.8989 4.23351 16.8989C5.57207 16.8989 6.76512 16.2729 7.54163 15.3002L16.69 19.9658C16.5898 20.3263 16.5321 20.7043 16.5321 21.0963C16.5321 23.4309 18.4313 25.3301 20.7659 25.3301C23.1005 25.3301 24.9997 23.4309 24.9997 21.0963C24.9997 18.762 23.1005 16.8628 20.7659 16.8628ZM20.7659 1.68868C22.1692 1.68868 23.311 2.8305 23.311 4.23351C23.311 5.6368 22.1692 6.77863 20.7659 6.77863C19.3626 6.77863 18.2208 5.6368 18.2208 4.23351C18.2208 2.8305 19.3626 1.68868 20.7659 1.68868ZM4.23379 15.2102C2.8305 15.2102 1.68896 14.0684 1.68896 12.6651C1.68896 11.2618 2.83078 10.1202 4.23379 10.1202C5.63708 10.1202 6.77891 11.2621 6.77891 12.6651C6.77891 14.0684 5.63708 15.2102 4.23379 15.2102ZM20.7659 23.6415C19.3626 23.6415 18.2208 22.4996 18.2208 21.0963C18.2208 19.6933 19.3626 18.5515 20.7659 18.5515C22.1692 18.5515 23.311 19.6933 23.311 21.0963C23.311 22.4996 22.1692 23.6415 20.7659 23.6415Z" fill="#D6D6D6"/>
</svg>
